<?xml version="1.0" encoding="utf-8"?>
<!-- Generator: Adobe Illustrator 17.0.0, SVG Export Plug-In . SVG Version: 6.00 Build 0)  -->
<!DOCTYPE svg PUBLIC "-//W3C//DTD SVG 1.1//EN" "http://www.w3.org/Graphics/SVG/1.1/DTD/svg11.dtd">
<svg version="1.1" id="Layer_1" xmlns="http://www.w3.org/2000/svg" xmlns:xlink="http://www.w3.org/1999/xlink" x="0px" y="0px"
	 viewBox="0 112.5 559.067 562.5" enable-background="new 0 112.5 559.067 562.5"
	 xml:space="preserve">
<path fill="#fff" d="M495,352.5h-48.75c3.75,15,7.5,30,7.5,41.25c0,93.75-78.75,172.5-172.5,172.5s-172.5-78.75-172.5-172.5
	c0-15,3.75-30,7.5-41.25h-52.5v240c0,11.25,11.25,22.5,22.5,22.5h390c11.25,0,22.5-11.25,22.5-22.5C495,588.75,495,352.5,495,352.5
	L495,352.5z M495,198.75c0-11.25-11.25-22.5-22.5-22.5h-60c-11.25,0-22.5,11.25-22.5,22.5v63.75c0,11.25,11.25,22.5,22.5,22.5h63.75
	c11.25,0,22.5-11.25,22.5-22.5C495,262.5,495,198.75,495,198.75L495,198.75z M281.25,285c-60,0-108.75,48.75-108.75,108.75
	S221.25,502.5,281.25,502.5S390,453.75,390,393.75S341.25,285,281.25,285 M495,675H63.75C26.25,675,0,645,0,611.25v-435
	c0-33.75,30-63.75,63.75-63.75H495c33.75,0,63.75,30,63.75,63.75V607.5C562.5,645,532.5,675,495,675"/>
</svg>
