<?xml version="1.0" encoding="utf-8"?>
<!-- Generator: Adobe Illustrator 17.0.0, SVG Export Plug-In . SVG Version: 6.00 Build 0)  -->
<!DOCTYPE svg PUBLIC "-//W3C//DTD SVG 1.1//EN" "http://www.w3.org/Graphics/SVG/1.1/DTD/svg11.dtd">
<svg version="1.1" id="Layer_1" xmlns="http://www.w3.org/2000/svg" xmlns:xlink="http://www.w3.org/1999/xlink" x="0px" y="0px"
	 viewBox="-5414.5 -5414.5 309 309" enable-background="new -5414.5 -5414.5 309 309"
	 xml:space="preserve">
<g id="svg-link">
	<path fill="#FFFFFF" d="M-5253-5309c-2-4-2-10,2-14l54-52c4-4,12-4,16,0l36,36c4,4,4,12,0,16l-54,54c-4,4-10,4-14,2l-24,26
		c18,16,48,16,64-2l54-54c18-18,18-50,0-68l-36-36c-18-18-50-18-68,0l-54,54c-18,18-18,46-2,64L-5253-5309L-5253-5309z M-5401-5155
		l36,36c18,18,50,18,68,0l54-54c18-18,18-46,2-64l-26,26c2,4,2,10-2,14l-54,54c-4,4-12,4-16,0l-36-38c-4-4-4-12,0-16l54-54
		c2-4,8-4,12-2l26-26c-18-16-46-16-64,2l-54,54C-5419-5205-5419-5173-5401-5155z M-5191-5327c-8-8-20-8-26,0l-110,108
		c-8,8-8,18,0,26s18,8,26,0l110-110C-5185-5309-5185-5321-5191-5327z"/>
</g>
</svg>
