<?xml version="1.0" encoding="utf-8"?>
<!-- Generator: Adobe Illustrator 17.0.0, SVG Export Plug-In . SVG Version: 6.00 Build 0)  -->
<!DOCTYPE svg PUBLIC "-//W3C//DTD SVG 1.1//EN" "http://www.w3.org/Graphics/SVG/1.1/DTD/svg11.dtd">
<svg version="1.1" id="Layer_1" xmlns="http://www.w3.org/2000/svg" xmlns:xlink="http://www.w3.org/1999/xlink" x="0px" y="0px"
	 viewBox="0 63.158 692.491 290.526" enable-background="new 0 63.158 692.491 290.526"
	 xml:space="preserve">
<g id="svg-youtube-horizontal">
	<g>
		<path fill="#FFFFFF" d="M258.947,296.842h-28.421v-15.789C221.053,293.684,214.737,300,205.263,300s-12.632-3.158-15.789-9.474
			c-3.158-6.316-3.158-12.632-3.158-22.105V157.895h25.263v113.684c0,3.158,3.158,6.316,6.316,6.316
			c6.316,0,9.474-6.316,15.789-12.632V157.895h28.421v138.947H258.947L258.947,296.842z M164.211,202.105
			c0-15.789-3.158-25.263-6.316-31.579c-6.316-9.474-18.947-15.789-28.421-15.789c-12.632,0-22.105,3.158-28.421,15.789
			c-6.316,6.316-9.474,15.789-9.474,31.579v50.526c0,12.632,3.158,25.263,6.316,31.579c6.316,9.474,18.947,12.632,31.579,12.632
			s22.105-3.158,28.421-12.632c6.316-6.316,6.316-18.947,6.316-31.579V202.105z M138.947,255.789
			c3.158,12.632-3.158,22.105-9.474,22.105s-12.632-6.316-9.474-22.105v-56.842c0-15.789,0-22.105,9.474-22.105
			c6.316,0,12.632,6.316,9.474,22.105V255.789z M63.158,221.053v75.789H34.737v-75.789c0,0-28.421-94.737-34.737-110.526h28.421
			l18.947,72.632l22.105-72.632h28.421C97.895,110.526,63.158,221.053,63.158,221.053z"/>
	</g>
	<path fill="#FFFFFF" d="M530.526,180c-3.158,0-9.474,0-12.632,6.316v85.263c3.158,6.316,9.474,6.316,12.632,6.316
		c6.316,0,12.632-6.316,12.632-18.947v-63.158C540,183.158,536.842,180,530.526,180z M631.579,195.789
		c0-12.632-3.158-15.789-12.632-15.789c-9.474,0-12.632,3.158-12.632,15.789v15.789h25.263V195.789z M691.579,126.316
		c0,0-3.158-28.421-15.789-41.053C660,69.474,644.211,69.474,634.737,66.316c-60-3.158-145.263-3.158-145.263-3.158
		s-88.421,0-145.263,6.316c-6.316,0-25.263,0-41.053,18.947c-12.632,9.474-18.947,37.895-18.947,37.895s-3.158,31.579-3.158,66.316
		v31.579c0,31.579,3.158,66.316,3.158,66.316s3.158,28.421,15.789,41.053c15.789,15.789,34.737,15.789,44.211,18.947
		c34.737,3.158,138.947,3.158,138.947,3.158s88.421,0,145.263-3.158c9.474-3.158,28.421-3.158,44.211-18.947
		c12.632-12.632,15.789-41.053,15.789-41.053s3.158-34.737,3.158-66.316v-31.579C694.737,157.895,688.421,126.316,691.579,126.316z
		 M372.632,296.842h-28.421V138.947h-28.421v-28.421h88.421v28.421h-28.421C372.632,138.947,372.632,296.842,372.632,296.842
		L372.632,296.842z M470.526,296.842h-28.421v-15.789C432.632,290.526,423.158,300,413.684,300c-6.316,0-12.632-3.158-15.789-9.474
		s-3.158-9.474-3.158-22.105V157.895h28.421v110.526c0,3.158,3.158,6.316,6.316,6.316s9.474-6.316,15.789-12.632V157.895h28.421
		L470.526,296.842L470.526,296.842z M568.421,255.789c0,12.632,0,22.105-3.158,28.421C562.105,293.684,552.632,300,546.316,300
		c-6.316,0-18.947-6.316-28.421-15.789v12.632h-25.263V110.526h25.263v60c6.316-9.474,15.789-15.789,28.421-15.789
		c9.474,0,15.789,6.316,18.947,15.789c0,6.316,3.158,15.789,3.158,28.421V255.789z M622.105,277.895
		c6.316,0,9.474-3.158,12.632-9.474v-18.947h28.421v18.947c0,6.316-3.158,9.474-6.316,15.789
		C650.526,293.684,641.053,300,625.263,300c-12.632,0-25.263-6.316-31.579-12.632c-3.158-6.316-6.316-18.947-6.316-31.579v-50.526
		c0-12.632,3.158-25.263,6.316-31.579c6.316-9.474,15.789-15.789,28.421-15.789s22.105,6.316,31.579,15.789
		C656.842,180,660,189.474,660,205.263v28.421h-50.526v25.263C609.474,271.579,615.789,277.895,622.105,277.895L622.105,277.895z"/>
</g>
</svg>
