<?xml version="1.0" encoding="utf-8"?>
<!-- Generator: Adobe Illustrator 17.0.0, SVG Export Plug-In . SVG Version: 6.00 Build 0)  -->
<!DOCTYPE svg PUBLIC "-//W3C//DTD SVG 1.1//EN" "http://www.w3.org/Graphics/SVG/1.1/DTD/svg11.dtd">
<svg version="1.1" id="Layer_1" xmlns="http://www.w3.org/2000/svg" xmlns:xlink="http://www.w3.org/1999/xlink" x="0px" y="0px"
	 viewBox="0 0 19 15" enable-background="new 0 0 19 15" xml:space="preserve">
<path fill="#fff" d="M18.5 1.7c-.7.3-1.4.5-2.2.6.8-.5 1.4-1.2 1.6-2.1-.7.5-1.5.7-2.4.9-.7-.6-1.8-1.1-2.8-1.1-2 0-3.7 1.7-3.7 3.8 0 .3 0 .6.1.8-3.1-.1-6-1.6-7.8-3.9-.3.6-.5 1.2-.5 2 0 1.3.7 2.4 1.7 3.1-.5 0-1.1-.3-1.7-.5 0 1.8 1.3 3.3 3 3.7-.3.1-.7.1-1 .1-.2 0-.5 0-.7-.1.5 1.5 1.8 2.7 3.6 2.7-1.3 1-2.9 1.6-4.7 1.6h-1c1.7 1.1 3.7 1.7 5.8 1.7 6.9 0 10.7-5.8 10.7-10.7v-.5c.8-.6 1.5-1.3 2-2.1z" />
</svg>
